<svg xmlns="http://www.w3.org/2000/svg" width="128" height="128" viewBox="0 0 128 128">
  <rect x="16" y="20" width="96" height="96" rx="14" fill="#3584e4"/>
  <rect x="16" y="20" width="96" height="22" rx="14" fill="#1c71d9"/>
  <rect x="16" y="36" width="96" height="6" fill="#1c71d9"/>
  <rect x="30" y="12" width="8" height="20" rx="4" fill="#5e5c64"/>
  <rect x="90" y="12" width="8" height="20" rx="4" fill="#5e5c64"/>
  <rect x="28" y="54" width="14" height="14" rx="4" fill="#fff" opacity="0.9"/>
  <rect x="50" y="54" width="14" height="14" rx="4" fill="#fff" opacity="0.6"/>
  <rect x="72" y="54" width="14" height="14" rx="4" fill="#fff" opacity="0.6"/>
  <rect x="28" y="74" width="14" height="14" rx="4" fill="#fff" opacity="0.6"/>
  <rect x="50" y="74" width="14" height="14" rx="4" fill="#fff" opacity="0.9"/>
  <rect x="72" y="74" width="14" height="14" rx="4" fill="#fff" opacity="0.6"/>
  <rect x="28" y="94" width="14" height="14" rx="4" fill="#fff" opacity="0.6"/>
  <rect x="50" y="94" width="14" height="14" rx="4" fill="#fff" opacity="0.6"/>
  <rect x="72" y="94" width="14" height="14" rx="4" fill="#fff" opacity="0.9"/>
</svg>

